<?xml version="1.0" standalone="no"?>
<svg width="64" height="64" viewBox="0 0 403 384" version="1.1" xmlns="http://www.w3.org/2000/svg">
  <path d="M403 384l-1 -392v0v-13c0 -5 -3 -8 -8 -8h-8h-277h-8c-5 0 -9 3 -9 8v13v45v0c0 5 4 9 9 9v0h34c5 0 8 -4 8 -9v0v-15h209v340h-109v-90c0 -5 -4 -9 -9 -9h-91v-9v0c0 -5 -3 -8 -8 -8v0h-34c-5 0 -8 3 -8 8h-1v9v5v13l133 132h9v0h147v0h13c5 0 8 -3 8 -8v-21h1zM199 146 c0 -45 -37 -82 -82 -82c-13 0 -26 3 -37 9l-41 -41v0c-4 -4 -10 -7 -16 -7c-13 0 -23 9 -23 22c0 7 3 13 7 17v0l40 40c-7 12 -12 27 -12 42c0 45 37 82 82 82s82 -37 82 -82zM70 146c0 -26 21 -48 47 -48s48 22 48 48s-22 47 -48 47s-47 -21 -47 -47z" transform="matrix(1,0,0,-1,0,384)"/>
</svg>